<?xml version="1.0" standalone="no"?>
<!DOCTYPE svg PUBLIC "-//W3C//DTD SVG 20010904//EN"
 "http://www.w3.org/TR/2001/REC-SVG-20010904/DTD/svg10.dtd">
<svg version="1.0" xmlns="http://www.w3.org/2000/svg"
 width="1577.000000pt" height="2050.000000pt" viewBox="0 0 1577.000000 2050.000000"
 preserveAspectRatio="xMidYMid meet">

<g transform="translate(0.000000,2050.000000) scale(0.100000,-0.100000)"
fill="#FFFFFF" stroke="none">
<path d="M1490 12595 l0 -6405 6405 0 6405 0 0 6405 0 6405 -6405 0 -6405 0 0
-6405z m2540 1684 l131 -401 417 7 417 7 -65 -49 c-36 -27 -185 -138 -332
-247 -148 -109 -270 -202 -274 -207 -3 -5 51 -183 121 -395 69 -212 125 -387
123 -389 -2 -2 -147 98 -323 222 -176 123 -327 228 -336 233 -12 7 -92 -46
-345 -230 -181 -131 -330 -238 -331 -236 -2 1 51 174 117 384 66 209 120 387
120 394 -1 7 -153 121 -339 253 l-337 240 220 6 c122 4 311 7 422 8 l200 1 76
238 c42 130 100 310 128 400 29 89 53 162 55 162 2 0 63 -180 135 -401z m2670
-1 l126 -393 420 3 419 4 -125 -94 c-69 -51 -221 -164 -338 -251 -116 -86
-212 -161 -212 -165 0 -4 56 -180 125 -391 69 -212 124 -386 122 -387 -1 -2
-153 103 -336 232 -195 137 -338 231 -344 227 -7 -4 -156 -112 -331 -240 -176
-128 -321 -231 -323 -230 -1 2 53 179 121 394 l123 392 -341 243 -340 243 219
6 c121 4 311 7 422 8 l201 1 11 33 c5 17 58 183 116 367 58 184 111 350 117
368 5 18 12 31 15 28 3 -3 63 -182 133 -398z m2682 1 l133 -401 415 7 c414 7
415 7 390 -12 -14 -11 -158 -118 -320 -238 -162 -119 -303 -225 -313 -235 -18
-17 -14 -30 108 -405 70 -213 125 -388 123 -390 -2 -2 -153 102 -336 231 -199
139 -338 231 -345 227 -7 -4 -156 -112 -331 -240 -176 -128 -321 -231 -323
-230 -2 3 178 585 226 729 l19 56 -341 244 -342 243 220 6 c121 4 311 7 422 8
l201 1 11 33 c5 17 58 183 116 367 58 184 111 350 116 368 6 17 12 32 14 32 2
0 63 -180 137 -401z m2678 0 l132 -401 411 7 c366 6 410 5 397 -8 -8 -8 -158
-121 -332 -251 -175 -130 -318 -239 -318 -243 0 -5 56 -181 125 -392 69 -212
123 -386 122 -387 -2 -2 -153 102 -336 231 -196 139 -337 232 -344 228 -7 -4
-156 -112 -331 -240 -176 -128 -321 -231 -323 -230 -1 2 51 174 117 383 66
208 121 385 122 392 2 6 -151 122 -339 255 l-342 244 292 6 c161 4 351 7 422
7 l130 0 63 198 c139 433 194 602 198 602 2 0 62 -180 134 -401z m-6162 -2234
c227 0 412 -2 412 -5 -1 -3 -147 -113 -327 -245 -179 -132 -328 -246 -330
-252 -3 -7 51 -185 119 -395 69 -211 124 -385 122 -387 -2 -2 -454 312 -624
435 l-46 33 -329 -240 c-181 -131 -330 -237 -332 -235 -2 2 50 176 117 386 66
211 120 386 120 391 0 4 -154 117 -341 251 l-341 243 421 6 c232 3 423 8 425
10 2 2 32 92 66 199 34 107 91 287 127 400 l66 205 132 -400 131 -400 412 0z
m2132 394 l132 -401 414 4 c381 3 412 2 396 -13 -9 -9 -156 -119 -327 -244
-170 -126 -313 -231 -317 -235 -5 -3 48 -179 117 -390 69 -212 124 -388 122
-392 -1 -4 -152 98 -336 226 l-334 234 -106 -77 c-425 -310 -553 -402 -556
-399 -2 2 52 178 120 393 l122 389 -21 16 c-12 9 -162 117 -334 239 -172 123
-314 227 -317 231 -2 4 183 9 411 12 302 3 418 8 423 16 4 7 63 188 131 402
68 215 125 390 127 390 1 0 61 -180 133 -401z m3229 -394 c226 0 410 -3 409
-7 -2 -3 -149 -113 -327 -245 -178 -131 -326 -244 -328 -251 -3 -7 51 -184
120 -394 69 -211 124 -384 123 -386 -3 -2 -480 328 -626 434 l-46 33 -329
-240 c-181 -131 -330 -237 -332 -235 -2 2 50 176 116 387 67 210 121 386 121
390 0 4 -154 117 -341 251 l-341 243 421 6 c232 3 423 8 425 10 2 2 29 85 60
184 32 99 89 279 128 400 l71 220 133 -400 133 -400 410 0z"/>
<path d="M2048 5375 c-210 -40 -384 -152 -493 -316 -56 -83 -89 -161 -117
-277 -30 -123 -30 -331 0 -454 96 -390 380 -608 792 -608 225 0 422 83 560
237 86 97 160 272 160 380 l0 43 -239 0 -239 0 -21 -68 c-24 -80 -76 -146
-135 -173 -51 -23 -146 -25 -209 -3 -55 18 -129 93 -156 157 -76 176 -57 459
38 592 39 55 118 101 186 110 126 15 231 -50 275 -172 l23 -63 239 0 239 0 -6
38 c-51 304 -213 493 -482 563 -104 27 -309 34 -415 14z"/>
<path d="M9637 5354 c-4 -4 -7 -74 -7 -156 l0 -148 225 0 226 0 -3 153 -3 152
-216 3 c-118 1 -218 -1 -222 -4z"/>
<path d="M11100 5068 l0 -282 -34 40 c-116 136 -380 160 -552 51 -97 -61 -179
-192 -211 -337 -24 -111 -21 -293 6 -395 48 -183 145 -315 278 -378 65 -31 73
-32 193 -32 122 0 127 1 192 33 40 20 81 49 103 74 l35 42 0 -62 0 -62 215 0
215 0 0 795 0 795 -220 0 -220 0 0 -282z m-85 -468 c22 -14 44 -42 62 -78 26
-53 28 -65 28 -182 0 -117 -2 -129 -28 -182 -76 -155 -277 -140 -334 25 -27
80 -24 256 5 322 29 63 47 83 97 107 49 23 121 18 170 -12z"/>
<path d="M13920 5072 l0 -278 -48 46 c-125 120 -321 142 -499 55 -84 -42 -148
-107 -193 -198 -47 -97 -62 -169 -67 -317 -6 -159 14 -265 71 -378 92 -183
230 -272 421 -272 125 0 202 27 273 96 31 30 57 54 59 54 2 0 3 -27 3 -60 l0
-60 210 0 210 0 0 795 0 795 -220 0 -220 0 0 -278z m-82 -474 c55 -34 85 -111
90 -229 7 -173 -31 -269 -122 -304 -54 -21 -127 -15 -166 13 -67 49 -92 124
-92 267 0 112 24 194 66 234 57 53 155 62 224 19z"/>
<path d="M3611 4939 c-253 -39 -432 -198 -486 -433 -23 -99 -21 -262 5 -356
46 -162 140 -279 282 -349 103 -51 193 -71 326 -71 333 0 557 170 618 470 35
175 1 362 -93 503 -72 109 -184 184 -328 222 -76 20 -241 27 -324 14z m225
-340 c21 -12 43 -41 61 -77 26 -53 28 -65 28 -182 0 -119 -1 -128 -30 -185
-24 -49 -38 -64 -75 -82 -97 -50 -191 -18 -243 82 -16 32 -21 64 -25 156 -5
134 11 210 56 260 54 60 156 73 228 28z"/>
<path d="M5252 4939 c-74 -14 -150 -56 -207 -113 l-55 -55 0 75 0 74 -215 0
-215 0 0 -580 0 -580 219 0 219 0 4 353 c3 336 4 354 25 399 36 80 115 108
199 73 25 -10 40 -26 54 -57 18 -40 20 -68 20 -405 l0 -363 220 0 220 0 0 313
c0 314 9 423 36 465 37 57 119 77 190 47 25 -10 40 -26 54 -57 18 -40 20 -68
20 -405 l0 -363 220 0 220 0 0 440 c0 419 -1 444 -21 502 -59 176 -206 261
-422 245 -133 -10 -231 -52 -311 -135 l-39 -41 -26 39 c-75 111 -238 163 -409
129z"/>
<path d="M8880 4940 c-91 -16 -161 -51 -222 -109 l-58 -57 0 73 0 73 -210 0
-210 0 0 -580 0 -580 220 0 219 0 3 353 c3 320 5 355 22 390 28 56 69 81 141
85 71 3 101 -10 129 -58 20 -33 21 -53 24 -402 l3 -368 220 0 219 0 0 434 c0
405 -1 438 -20 497 -58 186 -254 288 -480 249z"/>
<path d="M12175 4940 c-136 -22 -221 -57 -292 -123 -56 -51 -93 -123 -100
-193 l-6 -54 207 0 c197 0 206 1 206 19 0 36 47 78 100 91 75 18 136 6 177
-35 41 -41 43 -81 8 -123 -29 -35 -56 -42 -263 -72 -219 -32 -316 -67 -397
-141 -65 -60 -90 -124 -90 -234 0 -82 3 -97 33 -158 59 -120 163 -176 339
-185 159 -7 284 26 365 97 20 17 38 31 42 31 3 0 6 -15 6 -34 0 -69 -11 -66
236 -66 l223 0 -22 48 c-21 45 -22 61 -27 467 -5 400 -6 422 -26 466 -44 95
-122 152 -256 184 -76 19 -375 28 -463 15z m315 -722 c0 -107 -35 -178 -104
-209 -105 -48 -221 1 -221 93 0 32 6 45 32 69 18 15 52 33 75 39 24 6 77 21
118 34 104 33 100 34 100 -26z"/>
<path d="M6722 4473 c3 -435 4 -450 25 -502 32 -78 68 -125 126 -165 68 -46
126 -66 213 -73 144 -11 280 32 366 118 l48 48 0 -69 0 -70 215 0 215 0 0 580
0 580 -219 0 -219 0 -4 -342 c-3 -323 -4 -346 -24 -388 -27 -57 -58 -85 -110
-99 -77 -21 -145 6 -172 67 -14 32 -17 89 -20 400 l-4 362 -219 0 -220 0 3
-447z"/>
<path d="M9635 4908 c-3 -7 -4 -269 -3 -583 l3 -570 220 0 220 0 0 580 0 580
-218 3 c-168 2 -219 0 -222 -10z"/>
<path d="M5510 2425 l0 -895 260 0 260 0 0 577 c0 317 2 574 5 571 3 -3 74
-261 159 -574 l153 -569 206 -3 206 -2 15 52 c8 29 76 278 151 553 74 275 139
509 144 520 6 13 10 -189 10 -552 l1 -573 260 0 260 0 -2 893 -3 892 -391 3
-391 2 -53 -217 c-191 -789 -203 -838 -211 -818 -5 11 -63 244 -129 519 -66
274 -123 502 -126 507 -3 5 -180 9 -395 9 l-389 0 0 -895z"/>
<path d="M12157 3313 c-4 -3 -7 -82 -7 -175 l0 -168 250 0 250 0 0 175 0 175
-243 0 c-134 0 -247 -3 -250 -7z"/>
<path d="M2320 2999 l0 -312 -55 52 c-103 97 -232 134 -393 113 -234 -31 -388
-191 -444 -459 -16 -81 -19 -122 -15 -238 6 -163 20 -222 83 -353 60 -124 140
-207 249 -259 73 -34 86 -37 189 -41 178 -7 272 26 363 126 l43 47 0 -72 0
-73 240 0 240 0 0 890 0 890 -250 0 -250 0 0 -311z m-99 -522 c36 -19 50 -36
79 -92 l35 -68 -1 -136 c0 -143 -11 -190 -55 -252 -30 -43 -88 -69 -154 -69
-149 0 -219 102 -219 320 0 166 44 269 129 306 49 22 135 17 186 -9z"/>
<path d="M10260 2999 l0 -312 -55 52 c-103 97 -232 134 -392 113 -236 -32
-389 -189 -444 -457 -17 -83 -20 -124 -16 -240 6 -162 26 -246 87 -365 103
-196 251 -290 457 -290 163 1 245 30 331 118 l52 55 0 -72 0 -71 240 0 240 0
0 890 0 890 -250 0 -250 0 0 -311z m-123 -510 c99 -37 152 -169 140 -352 -12
-191 -77 -277 -212 -277 -149 0 -219 102 -219 320 0 165 44 269 129 306 37 16
123 18 162 3z"/>
<path d="M13790 2995 l0 -314 -45 48 c-169 181 -509 172 -695 -18 -61 -63
-108 -151 -141 -263 -27 -94 -37 -319 -19 -422 38 -218 163 -408 313 -480 85
-40 137 -49 260 -44 99 4 120 8 177 34 40 19 85 51 118 84 l52 54 0 -72 0 -72
240 0 240 0 0 890 0 890 -250 0 -250 0 0 -315z m-123 -506 c45 -17 91 -69 113
-126 27 -71 36 -201 21 -289 -26 -145 -93 -214 -210 -214 -71 0 -105 15 -148
64 -50 56 -67 124 -67 256 0 85 4 129 18 168 21 62 67 119 111 138 37 16 123
18 162 3z"/>
<path d="M3581 2849 c-205 -40 -382 -172 -468 -349 -61 -125 -76 -202 -71
-357 4 -106 9 -142 32 -208 79 -229 267 -380 533 -426 85 -15 309 -6 388 15
114 31 224 93 300 170 63 63 135 173 135 205 0 8 -68 11 -228 11 l-229 0 -24
-26 c-76 -82 -241 -94 -337 -24 -43 31 -86 108 -98 173 l-6 37 477 0 478 0 -6
103 c-24 378 -197 601 -519 668 -99 20 -275 24 -357 8z m287 -328 c61 -31 102
-88 115 -158 l7 -33 -240 0 -239 0 13 44 c23 76 79 136 144 156 53 16 160 11
200 -9z"/>
<path d="M8305 2850 c-75 -12 -187 -46 -239 -72 -103 -53 -187 -171 -202 -285
l-7 -53 231 0 230 0 7 30 c19 89 192 130 290 70 75 -46 68 -153 -13 -187 -20
-9 -122 -29 -227 -44 -104 -16 -217 -36 -250 -44 -143 -39 -246 -114 -294
-215 -23 -49 -26 -67 -26 -165 0 -97 3 -116 26 -165 68 -145 213 -220 425
-220 168 0 278 31 369 105 l52 43 6 -49 c3 -27 9 -54 12 -59 4 -6 104 -10 256
-10 l250 0 -15 29 c-34 66 -39 118 -45 561 -6 427 -8 447 -29 500 -30 76 -70
121 -141 158 -108 58 -192 74 -411 78 -107 1 -222 -1 -255 -6z m363 -828 c-9
-159 -75 -232 -208 -232 -92 0 -156 52 -154 126 2 75 35 99 194 139 57 14 115
33 129 40 14 8 30 14 35 15 5 0 7 -39 4 -88z"/>
<path d="M11761 2845 c-30 -9 -68 -24 -85 -35 -42 -25 -107 -95 -142 -150
l-29 -45 -3 108 -3 107 -234 0 -235 0 0 -655 0 -655 248 2 247 3 5 340 c7 379
9 395 77 474 54 63 102 84 208 89 60 3 109 -1 148 -11 l57 -15 0 218 c0 198
-2 218 -17 225 -40 15 -188 15 -242 0z"/>
<path d="M12150 2180 l0 -650 250 0 250 0 0 650 0 650 -250 0 -250 0 0 -650z"/>
</g>
</svg>
